<mxfile host="app.diagrams.net" modified="2023-12-20T12:42:08.436Z" agent="Mozilla/5.0 (Windows NT 10.0; Win64; x64) AppleWebKit/537.36 (KHTML, like Gecko) Chrome/120.0.0.0 Safari/537.36" etag="5G9yznsnAdd7HrKDIsoX" version="22.1.11" type="github">
  <diagram name="Page-1" id="_8xharTVKLAtXVkoKiV4">
    <mxGraphModel dx="886" dy="478" grid="1" gridSize="10" guides="1" tooltips="1" connect="1" arrows="1" fold="1" page="1" pageScale="1" pageWidth="850" pageHeight="1100" math="0" shadow="0">
      <root>
        <mxCell id="0" />
        <mxCell id="1" parent="0" />
        <mxCell id="LmtuOZhmkaeTIfhbaNnl-1" value="" style="shape=image;verticalLabelPosition=bottom;verticalAlign=top;imageAspect=0;aspect=fixed;image=data:image/svg+xml,PHN2ZyB4bWxucz0iaHR0cDovL3d3dy53My5vcmcvMjAwMC9zdmciIGlkPSJhdXRob3JpemF0aW9uLW1hbmFnZW1lbnQiIHZpZXdCb3g9IjQuMDAwMDAxOTA3MzQ4NjMzIDQuMDE3OTk5NjQ5MDQ3ODUyIDQ4IDQ4IiB3aWR0aD0iNDgiIGhlaWdodD0iNDgiPjxkZWZzPjxzdHlsZT4uY2xzLTF7ZmlsbDojMDc0ZDkyO30uY2xzLTJ7ZmlsbDojMDUzYjcwO30uY2xzLTN7ZmlsbDojMGE2ZWQxO308L3N0eWxlPjwvZGVmcz48dGl0bGU+YXV0aG9yaXphdGlvbi1tYW5hZ2VtZW50X2NpcmNsZTwvdGl0bGU+PHBhdGggY2xhc3M9ImNscy0xIiBkPSJNMjgsNi4wMThhMjIsMjIsMCwxLDEtMjIsMjIsMjIuMDI1LDIyLjAyNSwwLDAsMSwyMi0yMm0wLTJhMjQsMjQsMCwxLDAsMjQsMjQsMjQsMjQsMCwwLDAtMjQtMjRaIi8+PHBhdGggY2xhc3M9ImNscy0yIiBkPSJNMzkuMTksMjAuNDQ2YTEuMywxLjMsMCwwLDAtLjQ5Mi0uNDc2SDM4Ljd2LTEuOWEyLjcsMi43LDAsMCwwLS4yNjQtMS4xODUsMy4wNSwzLjA1LDAsMCwwLS43My0uOTYyLDMuNjQ0LDMuNjQ0LDAsMCwwLTEuMDc5LS42NTYsMy41MzcsMy41MzcsMCwwLDAtMS4zMTItLjI0NCwzLjYxNCwzLjYxNCwwLDAsMC0xLjMyMy4yNDQsMy40NTEsMy40NTEsMCwwLDAtMS4wNzkuNjU2LDMuMTA3LDMuMTA3LDAsMCwwLS43MTkuOTYyLDIuNjkyLDIuNjkyLDAsMCwwLS4yNjUsMS4xODVsLS4wMjEsMS45LS4wMDUsMGExLjMyMywxLjMyMywwLDAsMC0uNjU2LDEuMTYzVjI0LjVBMS4zMzcsMS4zMzcsMCwwLDAsMzIuNiwyNS44NTJoNS40MTdhMS4zMiwxLjMyLDAsMCwwLC45NTItLjM5MiwxLjI5MSwxLjI5MSwwLDAsMCwuNC0uOTYyVjIxLjEzM0ExLjI2OSwxLjI2OSwwLDAsMCwzOS4xOSwyMC40NDZabS02LjMxLTIuMzkxYTIuMTc0LDIuMTc0LDAsMCwxLC44MTMtMS43MywyLjY4NywyLjY4NywwLDAsMSwzLjI1LjEwOCwxLjk3MSwxLjk3MSwwLDAsMSwuODEyLDEuNjIydjEuN2gtNC45Wm0yLjk3NSw0LjQ1N1YyNC4xYS40NTEuNDUxLDAsMSwxLS45LDBWMjIuNTEyYS44MzMuODMzLDAsMCwxLS4zNTUtLjY4OC44MDYuODA2LDAsMCwxLDEuNjExLDBBLjgzMy44MzMsMCwwLDEsMzUuODU1LDIyLjUxMloiLz48cGF0aCBjbGFzcz0iY2xzLTMiIGQ9Ik0zMC44NjksMzQuMjU4YTQuODY0LDQuODY0LDAsMCwwLTIuNjA5LTIuNjA5LDQuNzgyLDQuNzgyLDAsMCwwLTEuODg1LS4zODFIMjEuNWE0LjczNiw0LjczNiwwLDAsMC0xLjkuMzgxQTQuOTUsNC45NSwwLDAsMCwxOC4wNTMsMzIuN2E0Ljg4Niw0Ljg4NiwwLDAsMC0xLjA0NywxLjU2MSw0Ljc2NCw0Ljc2NCwwLDAsMC0uMzgxLDEuODg1djQuODc1SDMxLjI1VjM2LjE0M0E0Ljc2NCw0Ljc2NCwwLDAsMCwzMC44NjksMzQuMjU4Wm0tMS4yNDQsNS4xMzVIMTguMjV2LTMuMjVhMy4xMjgsMy4xMjgsMCwwLDEsLjI1MS0xLjI0OSwzLjI0NiwzLjI0NiwwLDAsMSwuNy0xLjA0OCwzLjMxMywzLjMxMywwLDAsMSwxLjA0MS0uNzA2LDMuMDkyLDMuMDkyLDAsMCwxLDEuMjU3LS4yNDdoNC44NzVhMy4xMzcsMy4xMzcsMCwwLDEsMS4yNDguMjUxLDMuMjM3LDMuMjM3LDAsMCwxLDEuNzUsMS43NDksMy4xMjcsMy4xMjcsMCwwLDEsLjI1MiwxLjI1WiIvPjxwYXRoIGNsYXNzPSJjbHMtMyIgZD0iTTI3LjM4NCwyOS44NEE0Ljk1Nyw0Ljk1NywwLDAsMCwyOC40MzIsMjguM2E0LjkxNSw0LjkxNSwwLDAsMCwwLTMuNzlBNC44NzMsNC44NzMsMCwwLDAsMjUuODIzLDIxLjlhNC45LDQuOSwwLDAsMC0zLjc5LDAsNC45NTcsNC45NTcsMCwwLDAtMS41NDIsMS4wNDgsNC44ODgsNC44ODgsMCwwLDAtMS4wNDgsMS41NjEsNC45LDQuOSwwLDAsMCwwLDMuNzksNC45NzYsNC45NzYsMCwwLDAsMi41OSwyLjU5LDQuOTE1LDQuOTE1LDAsMCwwLDMuNzksMEE0Ljg4OCw0Ljg4OCwwLDAsMCwyNy4zODQsMjkuODRabS0zLjQ0Ni0uMkEzLjA5MywzLjA5MywwLDAsMSwyMi42OCwyOS40YTMuMzQ2LDMuMzQ2LDAsMCwxLTEuNzQ3LTEuNzQ4LDMuMDkzLDMuMDkzLDAsMCwxLS4yNDUtMS4yNTYsMy4xMjgsMy4xMjgsMCwwLDEsLjI1MS0xLjI0OSwzLjI0NiwzLjI0NiwwLDAsMSwuNy0xLjA0OCwzLjMsMy4zLDAsMCwxLDEuMDQtLjcwNiwzLjA5NCwzLjA5NCwwLDAsMSwxLjI1OC0uMjQ3LDMuMTQ0LDMuMTQ0LDAsMCwxLDEuMjQ4LjI1MSwzLjI0NiwzLjI0NiwwLDAsMSwxLjc1LDEuNzQ5LDMuMTQ1LDMuMTQ1LDAsMCwxLC4yNTIsMS4yNSwzLjA4OSwzLjA4OSwwLDAsMS0uMjQ3LDEuMjU3LDMuMywzLjMsMCwwLDEtLjcwNiwxLjA0MSwzLjI0LDMuMjQsMCwwLDEtMS4wNDkuN0EzLjEyNCwzLjEyNCwwLDAsMSwyMy45MzgsMjkuNjQzWiIvPjwvc3ZnPg==;" vertex="1" parent="1">
          <mxGeometry x="110" y="140" width="48" height="48" as="geometry" />
        </mxCell>
      </root>
    </mxGraphModel>
  </diagram>
</mxfile>
